<?xml version="1.0" encoding="UTF-8"?>
<svg version="1.1" viewBox="0 0 128 128" xmlns="http://www.w3.org/2000/svg">
	<circle cx="64" cy="64" r="50"/>
	<path fill="#ddd" d="m64 31.5a25 25 0 0 0-25 25v39.98l8.3174-8.3169 8.3365 8.3365 8.336-8.3365 8.3365 8.3365 8.337-8.3365 8.3365 8.3365v-40a25 25 0 0 0-25-25zm-10.001 20a5 5 0 0 1 5.0003 5.0003 5 5 0 0 1-5.0003 4.9997 5 5 0 0 1-4.9997-4.9997 5 5 0 0 1 4.9997-5.0003zm20.001 0a5 5 0 0 1 4.9997 5.0003 5 5 0 0 1-4.9997 4.9997 5 5 0 0 1-5.0003-4.9997 5 5 0 0 1 5.0003-5.0003z"/>
	<rect transform="rotate(-45)" x="-55" y="85" width="112" height="12" fill="#850000"/>
</svg>
